{
  "accessors": [
    {
      "bufferView": 2,
      "componentType": 5126,
      "count": 1994,
      "max": [
        19.75639533996582,
        21.046379089355469,
        118.38364410400391
      ],
      "min": [
        -15.110820770263672,
        -16.180320739746094,
        -22.109163284301758
      ],
      "type": "VEC3"
    },
    {
      "bufferView": 2,
      "byteOffset": 23928,
      "componentType": 5126,
      "count": 1994,
      "max": [
        0.99835366010665894,
        0.99968737363815308,
        0.99664312601089478
      ],
      "min": [
        -0.99994570016860962,
        -0.99722856283187866,
        -0.99970763921737671
      ],
      "type": "VEC3"
    },
    {
      "bufferView": 3,
      "componentType": 5126,
      "count": 1994,
      "max": [
        0.99839103221893311,
        0.99383664131164551,
        0.98735469579696655,
        1
      ],
      "min": [
        -0.99980407953262329,
        -0.99902689456939697,
        -0.99999725818634033,
        -1
      ],
      "type": "VEC4"
    },
    {
      "bufferView": 1,
      "componentType": 5126,
      "count": 1994,
      "max": [
        0.97606027126312256,
        0.990913987159729
      ],
      "min": [
        0.0090814922004938126,
        0.0090867280960083008
      ],
      "type": "VEC2"
    },
    {
      "bufferView": 0,
      "componentType": 5125,
      "count": 10599,
      "max": [
        1993
      ],
      "min": [
        0
      ],
      "type": "SCALAR"
    }
  ],
  "asset": {
    "extras": {
      "author": "3DMaesen (https://sketchfab.com/bumstrum)",
      "license": "CC-BY-4.0 (http://creativecommons.org/licenses/by/4.0/)",
      "source": "https://sketchfab.com/models/696f4493d39a44d7b5cf4c85b4239ae8",
      "title": "arm"
    },
    "generator": "Sketchfab-3.19.5",
    "version": "2.0"
  },
  "bufferViews": [
    {
      "buffer": 0,
      "byteLength": 42396,
      "byteOffset": 0,
      "name": "floatBufferViews",
      "target": 34963
    },
    {
      "buffer": 0,
      "byteLength": 15952,
      "byteOffset": 42396,
      "byteStride": 8,
      "name": "floatBufferViews",
      "target": 34962
    },
    {
      "buffer": 0,
      "byteLength": 47856,
      "byteOffset": 58348,
      "byteStride": 12,
      "name": "floatBufferViews",
      "target": 34962
    },
    {
      "buffer": 0,
      "byteLength": 31904,
      "byteOffset": 106204,
      "byteStride": 16,
      "name": "floatBufferViews",
      "target": 34962
    }
  ],
  "buffers": [
    {
      "byteLength": 138108,
      "uri": "scene.bin"
    }
  ],
  "extensionsRequired": [
    "KHR_materials_pbrSpecularGlossiness"
  ],
  "extensionsUsed": [
    "KHR_materials_pbrSpecularGlossiness"
  ],
  "images": [
    {
      "uri": "textures/arms1_occlusion.png"
    },
    {
      "uri": "textures/arms1_diffuse.png"
    },
    {
      "uri": "textures/arms1_specularGlossiness.png"
    },
    {
      "uri": "textures/arms1_normal.png"
    }
  ],
  "materials": [
    {
      "doubleSided": false,
      "emissiveFactor": [
        0,
        0,
        0
      ],
      "extensions": {
        "KHR_materials_pbrSpecularGlossiness": {
          "diffuseFactor": [
            1,
            1,
            1,
            1
          ],
          "diffuseTexture": {
            "index": 1,
            "texCoord": 0
          },
          "glossinessFactor": 1,
          "specularFactor": [
            1,
            1,
            1
          ],
          "specularGlossinessTexture": {
            "index": 2,
            "texCoord": 0
          }
        }
      },
      "name": "arms1",
      "normalTexture": {
        "index": 3,
        "scale": 1,
        "texCoord": 0
      },
      "occlusionTexture": {
        "index": 0,
        "strength": 0.90415396339999998,
        "texCoord": 0
      }
    }
  ],
  "meshes": [
    {
      "name": "arms_arms1_0",
      "primitives": [
        {
          "attributes": {
            "NORMAL": 1,
            "POSITION": 0,
            "TANGENT": 2,
            "TEXCOORD_0": 3
          },
          "indices": 4,
          "material": 0,
          "mode": 4
        }
      ]
    }
  ],
  "nodes": [
    {
      "children": [
        1
      ],
      "name": "RootNode (gltf orientation matrix)",
      "rotation": [
        -0.70710678118654746,
        -0,
        -0,
        0.70710678118654757
      ]
    },
    {
      "children": [
        2
      ],
      "name": "RootNode (model correction matrix)"
    },
    {
      "children": [
        3
      ],
      "matrix": [
        1,
        0,
        0,
        0,
        0,
        0,
        1,
        0,
        0,
        -1,
        0,
        0,
        0,
        0,
        0,
        1
      ],
      "name": "b104c81fdf1c4456b6a8104d6d4af77d.fbx"
    },
    {
      "children": [
        4
      ],
      "name": "RootNode"
    },
    {
      "children": [
        5
      ],
      "matrix": [
        0.92399583087615611,
        0.31949738316265841,
        -0.21012645401209096,
        0,
        -0.38150131053871994,
        0.80788232207333288,
        -0.44920251973763314,
        0,
        0.02623841803007726,
        0.49522477304110402,
        0.86836856782455341,
        0,
        -5.7925205230712891,
        0.85140866041183472,
        -2.833836555480957,
        1
      ],
      "name": "arms"
    },
    {
      "mesh": 0,
      "name": "arms_arms1_0"
    }
  ],
  "samplers": [
    {
      "magFilter": 9729,
      "minFilter": 9987,
      "wrapS": 10497,
      "wrapT": 10497
    }
  ],
  "scene": 0,
  "scenes": [
    {
      "name": "OSG_Scene",
      "nodes": [
        0
      ]
    }
  ],
  "textures": [
    {
      "sampler": 0,
      "source": 0
    },
    {
      "sampler": 0,
      "source": 1
    },
    {
      "sampler": 0,
      "source": 2
    },
    {
      "sampler": 0,
      "source": 3
    }
  ]
}

